<svg width="25" height="36" viewBox="0 0 25 36" fill="none" xmlns="http://www.w3.org/2000/svg">
<path d="M5.52984 18.5H1.73817C0.434943 19.2629 1.13305 20.1339 1.73817 20.25H4.36317C4.07151 22.9722 3.48817 28.7083 3.48817 29.875C4.2248 31.2077 5.20131 30.1637 5.23817 29.875V29H19.5298C21.3651 28.6243 21.8422 27.5628 21.8632 26.9583C22.02 24.9437 22.3934 20.5022 22.4465 19.375C21.7465 17.975 20.9882 18.7917 20.6965 19.375L20.1132 26.375H5.52984C5.72428 24.4306 6.11317 20.3083 6.11317 19.375C6.11317 18.675 5.72428 18.5 5.52984 18.5Z" fill="#1C95CC" stroke="#1C95CC"/>
<line x1="11.6667" y1="27.0833" x2="14.25" y2="27.0833" stroke="white" stroke-width="1.5" stroke-linecap="round" stroke-linejoin="round"/>
<path d="M6.25001 3.33333L5.08334 15.5833C5.55001 16.2833 6.44445 15.875 6.83334 15.5833L8.00001 3.13889L22.5833 3.33333C22.1945 6.83333 21.7083 14.125 21.4167 15.5833C22 16.4583 22.875 15.9722 23.1667 15.2917C23.4908 11.7917 24.1389 4.46111 24.1389 3.13889C24.3722 1.73889 22.875 1 22.2917 1H8.87501C6.77501 1 6.25001 2.55556 6.25001 3.33333Z" fill="#E00D0D" stroke="#E00D0D" stroke-linecap="round" stroke-linejoin="bevel"/>
<line x1="14" y1="2" x2="16.5833" y2="2" stroke="white" stroke-width="1.5" stroke-linecap="round"/>
<circle cx="7.125" cy="33.375" r="2.625" fill="#1C95CC"/>
<circle cx="17.625" cy="33.375" r="2.625" fill="#1C95CC"/>
<line x1="4.58334" y1="32.9417" x2="20.1667" y2="32.9417" stroke="#1C95CC" stroke-width="2.5" stroke-linecap="round"/>
<circle cx="6.83334" cy="33.375" r="0.875" fill="white"/>
<circle cx="17.625" cy="33.375" r="0.875" fill="white"/>
</svg>
