<svg width="89" height="24" viewBox="0 0 89 24" fill="none" xmlns="http://www.w3.org/2000/svg">
<path d="M22.647 12.6249V2.13946H25.8289V2.83248C25.8289 3.21372 25.8346 3.52559 25.8415 3.52559C25.8484 3.52559 26.0492 3.39994 26.2878 3.24641C29.102 1.43501 33.1929 0.889503 36.8621 1.83647C40.1677 2.68967 42.5641 4.71487 43.416 7.37548C43.9138 8.93027 43.8864 10.6592 43.3399 12.1628C42.6603 14.0333 41.2631 15.5371 39.2478 16.5673C37.4842 17.4688 35.4706 17.9203 33.2131 17.9203C31.3416 17.9203 29.5962 17.5995 28.0597 16.9734C27.4501 16.7249 26.6686 16.3171 26.1945 16L25.8289 15.7554V23.1105H22.647V12.6249ZM34.7522 15.1327C36.5421 14.8718 37.9307 14.2882 38.9719 13.3594C39.7601 12.6563 40.3089 11.68 40.5168 10.611C40.6019 10.1738 40.6021 9.14142 40.5173 8.70553C40.2725 7.4475 39.571 6.34863 38.521 5.57808C38.0977 5.26753 37.238 4.82489 36.6892 4.63519C35.1395 4.0995 33.2605 3.94085 31.5395 4.20042C28.5516 4.65103 26.5321 6.17404 25.9903 8.38507C25.7512 9.36065 25.7939 10.4139 26.1099 11.3343C26.8273 13.4251 28.9433 14.8164 31.9335 15.1636C32.5347 15.2335 34.1852 15.2153 34.7523 15.1327H34.7522ZM45.3013 12.6249V2.13946H48.4832V2.83248C48.4832 3.21372 48.4901 3.52559 48.4985 3.52559C48.5069 3.52559 48.682 3.41292 48.8875 3.27532C49.3633 2.95659 50.3021 2.47994 50.9042 2.25163C53.5031 1.26584 56.6763 1.10679 59.4533 1.8233C63.9801 2.99122 66.6457 6.191 66.3941 10.1546C66.2019 13.1801 64.243 15.6653 61.0208 16.9713C59.9698 17.3973 58.8926 17.666 57.5445 17.8383C56.833 17.9292 54.9154 17.9292 54.1727 17.8381C52.0704 17.5804 50.2248 16.9389 48.7857 15.9656L48.4832 15.761V23.1105H45.3013V12.6249ZM57.4836 15.1172C59.9624 14.7368 61.7092 13.7106 62.6271 12.0955C63.1603 11.1573 63.3599 9.90932 63.1622 8.75058C62.7511 6.34219 60.6915 4.67565 57.5382 4.19991C55.4569 3.88599 53.107 4.19869 51.5096 5.00213C49.8789 5.82233 48.8975 7.04685 48.5625 8.67948C48.4746 9.10812 48.4748 10.21 48.563 10.63C48.8002 11.7609 49.3365 12.6965 50.1504 13.3996C51.2711 14.3678 52.7297 14.9444 54.6224 15.1673C55.2484 15.241 56.861 15.2128 57.4836 15.1172V15.1172ZM9.5039 17.8986C7.81604 17.7454 6.3754 17.4037 5.15036 16.8659C2.36389 15.6428 0.603966 13.5785 0.126336 10.9729C0.0350838 10.4754 0.000292763 9.35421 0.0594375 8.81851C0.404365 5.69474 2.64352 3.22046 6.18365 2.0513C8.06753 1.42918 10.3864 1.2259 12.4679 1.50049C16.2813 2.0037 19.1659 3.82092 20.4337 6.51892C21.4661 8.71564 21.3351 11.384 20.0942 13.4355C19.5351 14.3596 18.6149 15.3133 17.6665 15.9511C16.1909 16.9435 14.4286 17.5608 12.2882 17.8351C11.8595 17.89 9.90162 17.9347 9.5039 17.8986V17.8986ZM11.7611 15.167C13.421 14.986 14.8173 14.4989 15.8679 13.7348C16.7267 13.11 17.4064 12.1892 17.7114 11.2372C17.8899 10.6801 17.9253 10.4185 17.9253 9.657C17.9253 8.89778 17.8904 8.63831 17.7133 8.08075C17.1311 6.248 15.4283 4.88465 13.0491 4.34651C10.963 3.87455 8.53025 4.03861 6.72788 4.77259C5.42749 5.30216 4.40116 6.15944 3.79917 7.21857C3.15922 8.34482 3.01389 9.87877 3.42224 11.2008C3.86219 12.6252 5.02113 13.8172 6.61595 14.4858C7.48463 14.85 8.56017 15.1039 9.62498 15.1958C10.0335 15.231 11.3344 15.2135 11.7611 15.167V15.167ZM77.3978 17.8998C77.3312 17.8921 77.0977 17.8682 76.8789 17.8469C75.1224 17.6758 73.2759 17.1058 71.9222 16.3167C70.092 15.25 68.8173 13.7339 68.2353 11.9318C67.8416 10.7122 67.7744 9.34164 68.0464 8.08065C68.458 6.17394 69.5873 4.5549 71.3411 3.35745C73.6541 1.77835 77.0548 1.07696 80.3376 1.50212C83.065 1.85527 85.3121 2.88039 86.8756 4.48482C88.0665 5.70669 88.751 7.13848 88.9489 8.82076C89.0003 9.25798 88.9923 10.1421 88.9327 10.606C88.5036 13.9466 85.9267 16.4998 81.9804 17.4945C80.784 17.796 80.0329 17.8874 78.6256 17.9023C78.0168 17.9087 77.4644 17.9076 77.3978 17.8998V17.8998ZM79.4902 15.1835C81.5913 14.985 83.3037 14.2733 84.403 13.1422C85.1473 12.3763 85.5793 11.5333 85.7496 10.5143C85.8198 10.0944 85.8188 9.21906 85.7476 8.78358C85.3646 6.43893 83.353 4.73929 80.3722 4.2421C79.6565 4.12269 79.1806 4.08376 78.4353 4.08376C75.0934 4.08376 72.5004 5.37877 71.5031 7.54577C71.2059 8.19169 71.0687 8.85825 71.0687 9.657C71.0687 10.7109 71.3076 11.5468 71.8472 12.3797C72.8378 13.9088 74.7162 14.8856 77.2024 15.1646C77.7153 15.2222 78.9723 15.2326 79.4903 15.1836L79.4902 15.1835Z" fill="black"/>
</svg>
