<svg width="90" height="23" viewBox="0 0 90 23" fill="none" xmlns="http://www.w3.org/2000/svg">
<g clip-path="url(#clip0)">
<path d="M33.4923 22.4931C31.5878 22.2713 30.0484 21.5633 28.8116 20.3407C27.2823 18.8298 26.4705 16.7926 26.4705 14.4649C26.4705 9.78591 29.8184 6.35561 34.3767 6.36307C35.5785 6.3652 36.7772 6.64724 37.8354 7.17826C38.3399 7.43151 38.9853 7.86389 39.3265 8.17739C39.4558 8.29628 39.574 8.39332 39.5888 8.39332C39.6037 8.39332 39.6164 7.99718 39.6164 7.51361V6.63284H41.5903V22.2969H39.6164V20.4836L39.4362 20.634C38.1125 21.7376 36.9075 22.275 35.3104 22.4749C34.9606 22.5187 33.8091 22.5304 33.4923 22.4931V22.4931ZM35.3125 20.4196C37.6987 20.0166 39.353 18.3206 39.8247 15.7935C39.9343 15.2075 39.937 13.7334 39.83 13.156C39.7049 12.4826 39.5374 11.966 39.2592 11.3955C38.4379 9.7118 36.9907 8.69135 35.0624 8.43543C34.3947 8.3464 33.4197 8.40344 32.7817 8.56819C30.9212 9.04856 29.4862 10.4049 28.8365 12.2981C28.5668 13.0845 28.5122 13.4492 28.5122 14.4649C28.5122 15.2459 28.5265 15.4309 28.6166 15.8377C29.1571 18.2673 30.8899 20.0006 33.1971 20.4212C33.6761 20.5081 34.7921 20.5076 35.3125 20.4196ZM16.2756 22.4302C14.9561 22.291 13.7373 21.8597 12.695 21.1639C12.1121 20.7747 11.2007 19.8524 10.8032 19.2499C9.83243 17.7773 9.36664 16.0105 9.435 14.0586C9.49753 12.2843 9.98822 10.769 10.941 9.4095C11.0798 9.21064 11.4365 8.80331 11.7321 8.50368C12.7893 7.43524 14.0622 6.75867 15.5962 6.44997C16.2141 6.32575 17.5966 6.27883 18.2394 6.35987C21.2005 6.73521 23.4187 8.73027 24.1807 11.7047C24.3662 12.4293 24.4499 13.0461 24.4822 13.9344L24.5103 14.7128H11.4269L11.4566 15.1756C11.5891 17.233 12.7755 19.0761 14.547 19.9761C15.3843 20.4015 16.1828 20.5865 17.187 20.5876C18.9092 20.5897 20.2101 20.0544 21.2938 18.8996C21.5646 18.6112 22.1756 17.7853 22.281 17.5662C22.2943 17.539 24.0032 18.6645 24.0032 18.7002C24.0032 18.8095 23.3032 19.7468 22.9169 20.1536C21.4904 21.6571 19.7226 22.3982 17.4302 22.4531C17.0106 22.4638 16.4912 22.4531 16.2756 22.4302V22.4302ZM22.4554 12.7609C22.0839 10.4076 20.4878 8.70148 18.2378 8.2531C17.7641 8.15873 16.5395 8.16939 16.062 8.27229C14.928 8.51701 13.9821 9.01071 13.1963 9.76885C12.3643 10.5718 11.81 11.58 11.5133 12.8286L11.4836 12.9528H22.485L22.4554 12.7609ZM81.8124 22.427C78.3749 22.1049 75.8229 19.7612 75.1313 16.293C74.6613 13.9328 75.0974 11.4717 76.3093 9.65262C77.4698 7.90921 79.1236 6.83118 81.2634 6.42065C81.8675 6.30496 83.6639 6.30549 84.2351 6.42225C85.6627 6.71388 86.8433 7.33927 87.8263 8.3256C89.2438 9.74699 90 11.7575 90 14.1018V14.7128L83.4832 14.7245L76.9669 14.7357L76.9786 15.0972C77.0263 16.5191 77.694 18.0061 78.7426 19.0228C79.5555 19.8113 80.5417 20.3103 81.6921 20.5167C82.2035 20.6078 83.302 20.6073 83.8165 20.5167C85.411 20.232 86.5657 19.4434 87.5534 17.9634C87.6944 17.7523 87.8263 17.5843 87.847 17.5902C87.9 17.6041 89.4288 18.5936 89.4939 18.6565C89.5628 18.7221 89.1421 19.3603 88.6498 19.9371C87.0776 21.776 84.5775 22.6866 81.8124 22.427ZM87.9805 12.8286C87.9805 12.7604 87.9413 12.5402 87.8936 12.3392C87.3542 10.0754 85.7655 8.56819 83.5621 8.22857C82.7222 8.09901 81.7202 8.18805 80.8702 8.46849C79.032 9.07468 77.6108 10.6075 77.1227 12.5087C77.074 12.6991 77.0342 12.8766 77.0342 12.9033C77.0342 12.9384 78.608 12.9528 82.5076 12.9528H87.9816L87.981 12.8286H87.9805ZM0 14.4419V6.58806H9.3322V8.4381L5.66418 8.44983L1.99669 8.46103L1.98503 15.3792L1.9739 22.2969H0V14.4419ZM45.0448 11.2819V0.313385H47.0637V22.2516H45.0448V11.2819ZM50.5187 14.419V6.58699H52.4926L52.4947 7.61438L52.4969 8.64123L52.6633 8.43863C53.2117 7.76793 53.7771 7.29609 54.4172 6.9746C55.1803 6.59073 55.8517 6.42332 56.7997 6.37746C57.8934 6.32575 58.7832 6.49636 59.649 6.92395C60.5674 7.37713 61.2281 8.02864 61.8508 9.09548C61.8932 9.16905 61.9197 9.14879 62.0813 8.90994C62.9297 7.6597 64.1919 6.83278 65.7732 6.49156C66.4 6.35614 67.7773 6.34228 68.3845 6.4649C69.4947 6.69043 70.369 7.14414 71.0924 7.87136C71.8623 8.6455 72.335 9.57798 72.6254 10.8933L72.7457 11.4397L72.7605 16.8459L72.7748 22.251H70.7977V17.426C70.7977 14.4174 70.7803 12.425 70.7511 12.1334C70.5667 10.2801 69.6134 8.94086 68.1233 8.44077C67.5386 8.24697 66.9191 8.18259 66.3073 8.25203C64.3853 8.46156 63.1432 9.5076 62.7092 11.2819C62.617 11.6583 62.6149 11.7682 62.5995 16.9584L62.5836 22.251H60.6135V17.5182C60.6135 14.6893 60.5949 12.5562 60.5673 12.216C60.384 9.94052 59.1424 8.49835 57.159 8.25576C55.3494 8.03397 53.4708 9.09708 52.7894 10.7296C52.5043 11.4104 52.5207 11.0575 52.5043 16.9142L52.4894 22.2516H50.5182V14.4195L50.5187 14.419Z" fill="black"/>
</g>
<defs>
<clipPath id="clip0">
<rect width="90" height="23" fill="white"/>
</clipPath>
</defs>
</svg>
