<svg width="87" height="24" viewBox="0 0 87 24" fill="none" xmlns="http://www.w3.org/2000/svg">
<path fill-rule="evenodd" clip-rule="evenodd" d="M68.2917 9.57365C69.1026 9.42314 74.6267 9.57365 75.8937 9.57365C77.1297 9.49722 78.3705 9.55611 79.5934 9.74925C80.7859 10.1052 81.8245 10.8446 82.5449 11.8504C83.2653 12.8562 83.6265 14.0711 83.5713 15.3029C83.516 16.5347 83.0475 17.7131 82.2399 18.6518C81.4323 19.5905 80.3316 20.2358 79.1119 20.4858C78.2504 20.6363 72.8276 20.4858 71.5099 20.4858C70.2748 20.5681 69.0343 20.5177 67.8102 20.3353C67.0695 20.1211 66.3812 19.7583 65.7882 19.2695C65.1952 18.7807 64.7101 18.1763 64.3631 17.494C64.0161 16.8117 63.8146 16.066 63.7711 15.3033C63.7277 14.5406 63.8432 13.7771 64.1106 13.0605C64.4168 12.1598 64.9657 11.3589 65.6981 10.7444C66.4305 10.1299 67.3186 9.72506 68.2664 9.57365H68.2917ZM86.9167 16.0206C87.1212 14.5431 86.9476 13.0385 86.4119 11.6447C85.8762 10.2509 84.9955 9.01262 83.8506 8.04344C82.7792 7.14019 81.5 6.51135 80.1256 6.2122C78.3496 6.02163 76.5595 5.99643 74.7788 6.13694H69.2039C67.6485 6.09747 66.1127 6.48841 64.7694 7.26579C63.5425 8.00535 62.5087 9.02057 61.7518 10.2292C60.9949 11.4379 60.5362 12.806 60.4129 14.2228C60.2895 15.6397 60.5049 17.0653 61.0417 18.3844C61.5784 19.7034 62.4214 20.8788 63.5024 21.8154C66.2898 24.1734 69.0012 23.8473 72.5489 23.8473H78.1237C80.3121 23.8751 82.4305 23.0846 84.0558 21.6337C85.6811 20.1828 86.6937 18.1783 86.8914 16.0206H86.9167ZM34.2345 8.54515C34.5818 9.35734 35.0424 10.1173 35.6029 10.8028L39.9614 17.2247C40.823 18.479 42.014 20.2851 42.9009 21.4892C43.4124 22.2811 44.1224 22.9284 44.9617 23.368C45.801 23.8076 46.741 24.0246 47.6902 23.9978C48.5878 23.9001 49.4476 23.586 50.1941 23.0831C50.9407 22.5802 51.5514 21.9037 51.9726 21.113L54.9121 16.8484L59.9801 9.3228C60.2024 9.03089 60.3314 8.6798 60.3504 8.31471C60.3694 7.94963 60.2776 7.58727 60.0868 7.27427C59.896 6.96128 59.615 6.71198 59.2798 6.55846C58.9447 6.40495 58.5708 6.35425 58.2063 6.41288C57.7922 6.56321 57.414 6.79685 57.0956 7.09907C56.7772 7.4013 56.5256 7.76555 56.3565 8.16886L53.4424 12.4334C52.4541 13.8382 51.4912 15.2931 50.5029 16.6979L49.0332 18.8302C48.864 19.2606 48.5628 19.6276 48.1718 19.8796C47.7809 20.1316 47.32 20.2559 46.8539 20.235C46.0648 19.8522 45.4304 19.2153 45.0548 18.4288L43.7624 16.3216L40.823 12.0571L37.8835 7.79258C37.7183 7.3578 37.4125 6.98927 37.0138 6.74429C36.6151 6.49931 36.1458 6.39162 35.6789 6.43797C35.2058 6.52913 34.7884 6.80189 34.5178 7.19669C34.2472 7.5915 34.1453 8.07627 34.2345 8.54515V8.54515ZM0 8.54515C0.307505 9.35293 0.743823 10.1067 1.29235 10.7778L7.14592 19.3068C8.59031 21.4642 10.0094 24.048 13.3543 23.9225C16.6992 23.7971 17.6874 21.2635 19.2585 18.9054L23.6677 12.5087L25.1628 10.552C25.8429 9.884 26.2491 8.99037 26.3031 8.04344C26.2802 7.78817 26.2027 7.54065 26.0758 7.31731C25.9489 7.09397 25.7754 6.89993 25.5669 6.74808C25.3583 6.59622 25.1196 6.49003 24.8664 6.43657C24.6132 6.3831 24.3515 6.38358 24.0985 6.43797C23.7067 6.56954 23.3468 6.78016 23.0415 7.05651C22.7361 7.33285 22.4921 7.66892 22.3247 8.04344C21.3364 9.52348 20.4242 10.8279 19.3852 12.308C18.3463 13.788 17.4847 15.2681 16.4964 16.6979C15.9896 17.4254 15.5335 18.1027 15.0267 18.8302C14.8606 19.2583 14.5694 19.6278 14.1903 19.8914C13.8112 20.155 13.3613 20.3008 12.8981 20.3102C12.0744 19.9593 11.4141 19.3146 11.0483 18.5041C8.51429 15.0925 5.98028 11.3296 3.725 7.81767C3.55699 7.38309 3.25154 7.01393 2.85422 6.76528C2.45691 6.51663 1.98904 6.40182 1.52041 6.43797C1.04836 6.51797 0.627014 6.7785 0.347305 7.16334C0.0675967 7.54818 -0.048044 8.02647 0.0253401 8.49498L0 8.54515ZM29.9267 6.46306C28.1276 6.83934 28.4063 8.34447 28.4063 10.2259V20.837C28.2731 21.6273 28.3789 22.439 28.7104 23.17C28.9017 23.4562 29.1714 23.6826 29.488 23.8225C29.8046 23.9625 30.1549 24.0103 30.4979 23.9603C30.8409 23.9103 31.1624 23.7645 31.4247 23.5401C31.6871 23.3158 31.8795 23.022 31.9793 22.6933C32.1566 22.1415 31.9793 15.7196 31.9793 14.8416V9.54857C32.1174 8.76063 32.0205 7.94992 31.7005 7.21562C31.5062 6.92514 31.2289 6.69847 30.904 6.56446C30.5791 6.43044 30.2213 6.39515 29.876 6.46306H29.9267ZM29.9267 0.0913472C29.6386 0.234075 29.3806 0.429896 29.1665 0.668314L27.8488 1.97276C26.9873 2.82566 27.6968 3.15177 28.7611 4.23045L29.5466 4.88267C30.4082 5.73557 30.7123 5.10844 31.8526 3.97959C33.4237 2.44938 33.373 2.77549 30.9403 0.367286C30.8427 0.217666 30.6976 0.104424 30.5279 0.0453857C30.3582 -0.0136525 30.1734 -0.0151318 30.0027 0.0411776L29.9267 0.0913472Z" fill="black"/>
</svg>
